<svg width="25" height="24" viewBox="0 0 25 24" fill="none" xmlns="http://www.w3.org/2000/svg">
<path d="M5.5 22H15.5C16.0523 22 16.5 21.5523 16.5 21V18.25V8C16.5 7.44772 16.0523 7 15.5 7H5.5C4.94772 7 4.5 7.44772 4.5 8V21C4.5 21.5523 4.94772 22 5.5 22Z" stroke="#0000F0" stroke-width="2" stroke-linecap="round"/>
<path d="M16.5 18H19.5C20.0523 18 20.5 17.5523 20.5 17V16M20.5 11V4C20.5 3.44772 20.0523 3 19.5 3H9.5C8.94772 3 8.5 3.44772 8.5 4V6" stroke="#0000F0" stroke-width="2" stroke-linecap="round"/>
</svg>
