<svg width="49" height="48" viewBox="0 0 49 48" fill="none" xmlns="http://www.w3.org/2000/svg">
<g clip-path="url(#clip0_5558_12977)">
<mask id="path-1-inside-1_5558_12977" fill="white">
<path d="M1.11652 21.9236C0.111723 33.0815 7.23461 43.681 18.4232 46.679C30.947 50.0348 43.8233 42.6006 47.179 30.0768C50.5348 17.553 43.1007 4.67675 30.5768 1.321C18.053 -2.03475 5.17673 5.3993 1.82098 17.9231"/>
</mask>
<path d="M3.10846 22.103C3.20753 21.0029 2.39602 20.0307 1.29591 19.9317C0.195787 19.8326 -0.776345 20.6441 -0.875415 21.7442L3.10846 22.103ZM-0.110874 17.4055C-0.396758 18.4724 0.236408 19.5691 1.30334 19.855C2.37027 20.1409 3.46695 19.5077 3.75283 18.4408L-0.110874 17.4055ZM-0.875415 21.7442C-1.96589 33.8535 5.76099 45.3567 17.9055 48.6109L18.9408 44.7472C8.70822 42.0053 2.18934 32.3095 3.10846 22.103L-0.875415 21.7442ZM17.9055 48.6109C31.4963 52.2525 45.4693 44.1852 49.1109 30.5944L45.2472 29.5592C42.1773 41.0161 30.3977 47.817 18.9408 44.7472L17.9055 48.6109ZM49.1109 30.5944C52.7525 17.0037 44.6852 3.03078 31.0945 -0.610854L30.0592 3.25285C41.5161 6.32272 48.3171 18.1023 45.2472 29.5592L49.1109 30.5944ZM31.0945 -0.610854C17.5037 -4.25249 3.53076 3.81473 -0.110874 17.4055L3.75283 18.4408C6.8227 6.98388 18.6023 0.182978 30.0592 3.25285L31.0945 -0.610854Z" fill="#F0F1F2" mask="url(#path-1-inside-1_5558_12977)"/>
<path d="M28.3777 46.1599C38.9552 44.3226 47 35.1003 47 24C47 11.575 36.925 1.5 24.5 1.5C12.075 1.5 2 11.575 2 24" stroke="#0000F0" stroke-width="2" stroke-linecap="round" stroke-linejoin="round"/>
<path d="M19.394 22.325L21.409 20.3101L23.4189 22.325" stroke="#0000F0" stroke-width="2" stroke-linecap="round" stroke-linejoin="round"/>
<path d="M31.1035 33.7046C31.0071 33.7046 30.9056 33.7046 30.8041 33.6996C30.9056 33.6996 31.0071 33.7046 31.1035 33.7046ZM31.1035 33.7046C31.1137 33.7046 31.1238 33.7046 31.1391 33.7046C32.0476 33.7046 32.9459 33.5776 33.8138 33.334C32.9459 33.5827 32.0476 33.7046 31.1391 33.7046C31.1238 33.7046 31.1137 33.7046 31.1035 33.7046ZM27.8247 33.126C26.8705 32.7808 25.9772 32.2885 25.1702 31.6592C25.9772 32.2835 26.8705 32.7757 27.8247 33.126ZM36.5597 32.05C37.4074 31.4815 38.1535 30.7862 38.7828 29.9893C38.1535 30.7862 37.4074 31.4815 36.5597 32.05ZM23.0942 29.4462C22.5207 28.6036 22.0842 27.6799 21.8 26.7054C22.0842 27.685 22.5207 28.6036 23.0942 29.4462ZM40.2649 27.3449C40.6151 26.3907 40.813 25.3908 40.8536 24.3706C40.8181 25.3908 40.6151 26.3907 40.2649 27.3449ZM21.4092 23.7006V20.6553V23.7006ZM40.5085 21.3557C40.2345 20.3762 39.8081 19.4474 39.2447 18.5997C39.8081 19.4474 40.2345 20.3762 40.5085 21.3557ZM37.1993 16.3664C36.4024 15.732 35.5142 15.2244 34.5651 14.8692C35.5142 15.2244 36.3973 15.7269 37.1993 16.3664ZM28.5759 14.5849C29.4083 14.3565 30.2661 14.2449 31.134 14.2449C31.2863 14.2449 31.4385 14.25 31.5907 14.255C31.4385 14.25 31.2863 14.2449 31.134 14.2449C31.1289 14.2449 31.1187 14.2449 31.1137 14.2449C30.2559 14.2449 29.4032 14.3616 28.5759 14.5849Z" stroke="#0000F0" stroke-width="2" stroke-linecap="round" stroke-linejoin="round"/>
<path d="M29.6065 25.6699L27.5914 27.6849L25.5815 25.6699" stroke="#0000F0" stroke-width="2" stroke-linecap="round" stroke-linejoin="round"/>
<path d="M17.8662 33.7247C17.7139 33.7247 17.5617 33.7196 17.4094 33.7145C17.5617 33.7196 17.7139 33.7247 17.8662 33.7247ZM17.8662 33.7247C17.8713 33.7247 17.8814 33.7247 17.8865 33.7247C18.7442 33.7247 19.5969 33.608 20.4243 33.3847C19.5919 33.6131 18.7291 33.7247 17.8662 33.7247ZM14.4402 33.1055C13.4911 32.7502 12.6028 32.2427 11.8059 31.6082C12.6028 32.2427 13.4911 32.7451 14.4402 33.1055ZM9.75546 29.37C9.19207 28.5223 8.76567 27.5934 8.49159 26.6138C8.76567 27.5934 9.19207 28.5223 9.75546 29.37ZM27.591 27.3194V24.2741V27.3194ZM8.14648 23.6041C8.18709 22.5839 8.38505 21.584 8.73527 20.6298C8.38505 21.579 8.18709 22.5788 8.14648 23.6041ZM27.2053 21.2643C26.921 20.2898 26.4845 19.366 25.911 18.5234C26.4794 19.366 26.916 20.2898 27.2053 21.2643ZM10.2173 17.9854C10.8467 17.1834 11.5928 16.4932 12.4404 15.9248C11.5928 16.4882 10.8467 17.1834 10.2173 17.9854ZM23.83 16.3105C23.023 15.6862 22.1297 15.1888 21.1755 14.8436C22.1297 15.1938 23.023 15.6862 23.83 16.3105ZM15.1914 14.6406C16.0593 14.3919 16.9577 14.2701 17.8662 14.2701C17.9779 14.2701 18.0895 14.2701 18.2012 14.2752C18.0895 14.2701 17.9779 14.2701 17.8662 14.2701C16.9577 14.2701 16.0542 14.3919 15.1914 14.6406Z" stroke="#0000F0" stroke-width="2" stroke-linecap="round" stroke-linejoin="round"/>
</g>
<defs>
<clipPath id="clip0_5558_12977">
<rect width="48" height="48" fill="white" transform="translate(0.5)"/>
</clipPath>
</defs>
</svg>
