<svg width="49" height="48" viewBox="0 0 49 48" fill="none" xmlns="http://www.w3.org/2000/svg">
<path fill-rule="evenodd" clip-rule="evenodd" d="M17.8633 5.01641C20.4313 4.9218 22.9872 5.41056 25.339 6.44595C27.6909 7.48134 29.7774 9.03642 31.4417 10.9943C32.9376 12.754 34.0575 14.7979 34.7358 17H36.4999C38.9438 17.0016 41.3183 17.817 43.2473 19.3176C45.1763 20.8181 46.5506 22.9183 47.1534 25.2867C47.7562 27.6551 47.5532 30.1568 46.5763 32.3969C45.5994 34.6371 43.9043 36.4882 41.7586 37.658C41.2737 37.9223 40.6663 37.7435 40.4019 37.2586C40.1376 36.7737 40.3163 36.1663 40.8013 35.902C42.5569 34.9449 43.9438 33.4304 44.743 31.5975C45.5423 29.7646 45.7084 27.7178 45.2152 25.78C44.722 23.8422 43.5975 22.1239 42.0193 20.8962C40.441 19.6685 38.4988 19.0013 36.4993 19H33.9799C33.524 19 33.1259 18.6916 33.0118 18.2503C32.4442 16.0551 31.3864 14.0172 29.9179 12.2896C28.4494 10.5621 26.6083 9.18999 24.5332 8.27641C22.458 7.36283 20.2028 6.93157 17.937 7.01505C15.6712 7.09854 13.4538 7.69459 11.4515 8.7584C9.44917 9.82221 7.71409 11.3261 6.37667 13.157C5.03925 14.9879 4.1343 17.0982 3.72984 19.3291C3.32538 21.5601 3.43195 23.8538 4.04153 26.0376C4.65111 28.2215 5.74783 30.2388 7.24926 31.9378C7.61497 32.3516 7.57596 32.9836 7.16211 33.3493C6.74827 33.715 6.11631 33.676 5.75059 33.2622C4.04898 31.3366 2.80602 29.0504 2.11517 26.5753C1.42431 24.1003 1.30354 21.5008 1.76192 18.9724C2.2203 16.4439 3.24592 14.0523 4.76166 11.9773C6.2774 9.90226 8.24382 8.19785 10.5131 6.9922C12.7824 5.78655 15.2954 5.11102 17.8633 5.01641Z" fill="#0000F0"/>
<path fill-rule="evenodd" clip-rule="evenodd" d="M24.9992 21C25.2644 21 25.5187 21.1053 25.7063 21.2929L33.7071 29.2929C34.0976 29.6834 34.0976 30.3165 33.7071 30.7071C33.3166 31.0976 32.6835 31.0976 32.2929 30.7071L24.9993 23.4142L17.7071 30.7071C17.3166 31.0976 16.6835 31.0976 16.2929 30.7071C15.9024 30.3166 15.9024 29.6835 16.2929 29.2929L24.2921 21.2929C24.4796 21.1054 24.7339 21 24.9992 21Z" fill="#0000F0"/>
<path fill-rule="evenodd" clip-rule="evenodd" d="M25 28C25.5523 28 26 28.4477 26 29V45C26 45.5523 25.5523 46 25 46C24.4477 46 24 45.5523 24 45V29C24 28.4477 24.4477 28 25 28Z" fill="#0000F0"/>
</svg>
